<svg xmlns="http://www.w3.org/2000/svg" xmlns:xlink="http://www.w3.org/1999/xlink" width="552" zoomAndPan="magnify" viewBox="0 0 414 413.999985" height="552" preserveAspectRatio="xMidYMid meet" version="1.0"><defs><clipPath id="89eac80237"><path d="M 9 13.882812 L 404.933594 13.882812 L 404.933594 400.132812 L 9 400.132812 Z M 9 13.882812 " clip-rule="nonzero"/></clipPath></defs><rect x="-41.4" width="496.8" fill="#9333EA" y="-41.4" height="496.8" fill-opacity="1"/><g clip-path="url(#89eac80237)"><path fill="#ffffff" d="M 239.351562 56.601562 L 88.050781 56.601562 C 77.058594 56.601562 70.484375 65.59375 73.417969 76.585938 L 93.910156 153.058594 C 96.855469 164.050781 108.257812 173.042969 119.246094 173.042969 L 270.546875 173.042969 C 281.539062 173.042969 288.128906 164.050781 285.179688 153.058594 L 264.6875 76.585938 C 261.753906 65.59375 250.355469 56.601562 239.351562 56.601562 M 132.222656 264.148438 L 268.175781 400.109375 L 404.988281 400.109375 L 269.027344 264.148438 Z M 257.570312 226.585938 L 294.59375 187.71875 C 306.003906 178.703125 311.476562 163.242188 307.171875 147.164062 L 286.679688 70.691406 C 281.140625 50.003906 260.914062 33.847656 239.363281 33.847656 L 189.5625 33.847656 C 185.511719 22.226562 174.457031 13.882812 161.457031 13.882812 C 148.457031 13.882812 137.398438 22.226562 133.351562 33.847656 L 88.050781 33.847656 C 75.78125 33.847656 65.496094 39 58.730469 47.046875 L 59.371094 46.304688 L 22.691406 84.628906 C 14.050781 91.824219 8.960938 102.839844 9.328125 114.945312 L 9.328125 400.109375 L 106.058594 400.109375 L 106.058594 237.984375 L 241.273438 236.394531 C 247.695312 234.53125 253.234375 231.097656 257.570312 226.585938 Z M 257.570312 226.585938 " fill-opacity="1" fill-rule="evenodd"/></g><path fill="#ffffff" d="M 145.421875 82.796875 C 157.792969 82.796875 167.835938 92.828125 167.835938 105.210938 C 167.835938 117.582031 157.804688 127.621094 145.421875 127.621094 C 133.039062 127.621094 123.011719 117.59375 123.011719 105.210938 C 123.011719 92.828125 133.039062 82.796875 145.421875 82.796875 M 222.433594 86 C 211.832031 86 203.222656 94.59375 203.222656 105.210938 C 203.222656 115.816406 211.820312 124.421875 222.433594 124.421875 C 233.039062 124.421875 241.648438 115.828125 241.648438 105.210938 C 241.648438 94.605469 233.050781 86 222.433594 86 " fill-opacity="1" fill-rule="evenodd"/></svg>