<svg xmlns="http://www.w3.org/2000/svg" xmlns:xlink="http://www.w3.org/1999/xlink" width="256" zoomAndPan="magnify" viewBox="0 0 192 191.999996" height="256" preserveAspectRatio="xMidYMid meet" version="1.0"><path fill="#ffffff" d="M 2.078125 16.316406 C 2.5625 16.316406 3.046875 16.132812 3.414062 15.761719 L 15.667969 3.511719 C 16.40625 2.773438 16.40625 1.578125 15.667969 0.839844 C 14.929688 0.101562 13.734375 0.101562 12.996094 0.839844 L 0.746094 13.09375 C 0.0078125 13.832031 0.0078125 15.027344 0.746094 15.761719 C 1.113281 16.132812 1.597656 16.316406 2.078125 16.316406 Z M 2.078125 16.316406 " fill-opacity="1" fill-rule="nonzero"/><path fill="#ffffff" d="M 2.078125 35.835938 C 2.5625 35.835938 3.046875 35.652344 3.414062 35.28125 L 35.1875 3.511719 C 35.925781 2.773438 35.925781 1.578125 35.1875 0.839844 C 34.449219 0.101562 33.253906 0.101562 32.515625 0.839844 L 0.746094 32.613281 C 0.0078125 33.351562 0.0078125 34.546875 0.746094 35.28125 C 1.113281 35.652344 1.597656 35.835938 2.078125 35.835938 Z M 2.078125 35.835938 " fill-opacity="1" fill-rule="nonzero"/><path fill="#ffffff" d="M 2.078125 55.335938 C 2.5625 55.335938 3.046875 55.152344 3.414062 54.785156 L 54.6875 3.511719 C 55.425781 2.773438 55.425781 1.578125 54.6875 0.839844 C 53.953125 0.101562 52.757812 0.101562 52.019531 0.839844 L 0.746094 52.113281 C 0.0078125 52.851562 0.0078125 54.046875 0.746094 54.785156 C 1.113281 55.152344 1.597656 55.335938 2.078125 55.335938 Z M 2.078125 55.335938 " fill-opacity="1" fill-rule="nonzero"/><path fill="#ffffff" d="M 2.078125 74.839844 C 2.5625 74.839844 3.046875 74.65625 3.414062 74.285156 L 27.914062 49.785156 C 28.472656 50.003906 29.058594 50.117188 29.644531 50.117188 C 30.851562 50.117188 32.0625 49.65625 32.984375 48.734375 L 52.238281 29.476562 C 53.609375 28.105469 53.957031 26.105469 53.289062 24.410156 L 74.191406 3.511719 C 74.925781 2.773438 74.925781 1.578125 74.191406 0.839844 C 73.453125 0.101562 72.257812 0.101562 71.519531 0.839844 L 50.613281 21.746094 C 48.921875 21.089844 46.929688 21.4375 45.566406 22.804688 L 26.308594 42.058594 C 24.941406 43.425781 24.59375 45.417969 25.253906 47.109375 L 0.746094 71.617188 C 0.0078125 72.355469 0.0078125 73.546875 0.746094 74.285156 C 1.113281 74.65625 1.597656 74.839844 2.078125 74.839844 Z M 2.078125 74.839844 " fill-opacity="1" fill-rule="nonzero"/><path fill="#ffffff" d="M 2.078125 94.359375 C 2.5625 94.359375 3.046875 94.175781 3.414062 93.804688 L 27.914062 69.304688 C 28.472656 69.523438 29.058594 69.636719 29.644531 69.636719 C 30.851562 69.636719 32.0625 69.175781 32.984375 68.253906 L 71.757812 29.476562 C 73.128906 28.105469 73.476562 26.105469 72.808594 24.410156 L 93.710938 3.511719 C 94.449219 2.773438 94.449219 1.578125 93.710938 0.839844 C 92.972656 0.101562 91.777344 0.101562 91.039062 0.839844 L 70.132812 21.746094 C 68.441406 21.089844 66.449219 21.4375 65.085938 22.804688 L 26.308594 61.578125 C 24.941406 62.945312 24.59375 64.9375 25.253906 66.628906 L 0.746094 91.136719 C 0.0078125 91.875 0.0078125 93.070312 0.746094 93.804688 C 1.113281 94.175781 1.597656 94.359375 2.078125 94.359375 Z M 2.078125 94.359375 " fill-opacity="1" fill-rule="nonzero"/><path fill="#ffffff" d="M 2.078125 113.859375 C 2.5625 113.859375 3.046875 113.675781 3.414062 113.308594 L 27.914062 88.804688 C 28.472656 89.023438 29.058594 89.136719 29.644531 89.136719 C 30.851562 89.136719 32.0625 88.675781 32.984375 87.753906 L 72.15625 48.582031 C 73.527344 47.210938 73.875 45.210938 73.207031 43.515625 L 113.210938 3.511719 C 113.949219 2.773438 113.949219 1.578125 113.210938 0.839844 C 112.472656 0.101562 111.28125 0.101562 110.542969 0.839844 L 70.53125 40.851562 C 68.839844 40.195312 66.847656 40.542969 65.480469 41.910156 L 26.308594 81.082031 C 24.941406 82.445312 24.59375 84.4375 25.253906 86.128906 L 0.746094 110.636719 C 0.0078125 111.375 0.0078125 112.570312 0.746094 113.308594 C 1.113281 113.675781 1.597656 113.859375 2.078125 113.859375 Z M 2.078125 113.859375 " fill-opacity="1" fill-rule="nonzero"/><path fill="#ffffff" d="M 2.078125 133.363281 C 2.5625 133.363281 3.046875 133.179688 3.414062 132.808594 L 27.917969 108.308594 C 28.472656 108.527344 29.058594 108.640625 29.644531 108.640625 C 30.855469 108.640625 32.0625 108.179688 32.984375 107.257812 L 72.15625 68.105469 C 73.527344 66.730469 73.875 64.726562 73.203125 63.027344 L 132.730469 3.511719 C 133.46875 2.773438 133.46875 1.578125 132.730469 0.839844 C 131.996094 0.101562 130.800781 0.101562 130.0625 0.839844 L 70.523438 60.371094 C 68.835938 59.714844 66.84375 60.0625 65.480469 61.425781 L 26.308594 100.582031 C 24.941406 101.949219 24.59375 103.941406 25.253906 105.632812 L 0.746094 130.140625 C 0.0078125 130.878906 0.0078125 132.070312 0.746094 132.808594 C 1.113281 133.179688 1.597656 133.363281 2.078125 133.363281 Z M 2.078125 133.363281 " fill-opacity="1" fill-rule="nonzero"/><path fill="#ffffff" d="M 2.078125 152.882812 C 2.5625 152.882812 3.046875 152.699219 3.414062 152.328125 L 27.914062 127.828125 C 28.472656 128.046875 29.058594 128.160156 29.644531 128.160156 C 30.851562 128.160156 32.0625 127.699219 32.984375 126.777344 L 130.28125 29.476562 C 131.652344 28.105469 132 26.105469 131.332031 24.410156 L 152.234375 3.511719 C 152.972656 2.773438 152.972656 1.578125 152.234375 0.839844 C 151.496094 0.101562 150.300781 0.101562 149.5625 0.839844 L 128.65625 21.746094 C 126.964844 21.089844 124.972656 21.4375 123.609375 22.804688 L 26.308594 120.101562 C 24.941406 121.46875 24.59375 123.460938 25.253906 125.152344 L 0.746094 149.660156 C 0.0078125 150.398438 0.0078125 151.59375 0.746094 152.328125 C 1.113281 152.699219 1.597656 152.882812 2.078125 152.882812 Z M 2.078125 152.882812 " fill-opacity="1" fill-rule="nonzero"/><path fill="#ffffff" d="M 2.078125 172.382812 C 2.5625 172.382812 3.046875 172.199219 3.414062 171.832031 L 27.914062 147.328125 C 28.472656 147.546875 29.058594 147.660156 29.644531 147.660156 C 30.851562 147.660156 32.0625 147.199219 32.984375 146.277344 L 149.785156 29.476562 C 151.15625 28.105469 151.503906 26.105469 150.835938 24.410156 L 171.734375 3.511719 C 172.472656 2.773438 172.472656 1.578125 171.734375 0.839844 C 170.996094 0.101562 169.804688 0.101562 169.066406 0.839844 L 148.160156 21.746094 C 146.46875 21.089844 144.476562 21.4375 143.109375 22.804688 L 26.308594 139.605469 C 24.941406 140.96875 24.59375 142.960938 25.253906 144.652344 L 0.746094 169.160156 C 0.0078125 169.898438 0.0078125 171.09375 0.746094 171.832031 C 1.113281 172.199219 1.597656 172.382812 2.078125 172.382812 Z M 2.078125 172.382812 " fill-opacity="1" fill-rule="nonzero"/><path fill="#ffffff" d="M 188.585938 20.34375 L 117.253906 91.671875 C 115.5625 91.015625 113.570312 91.363281 112.207031 92.730469 L 85.871094 119.066406 C 84.503906 120.429688 84.15625 122.421875 84.816406 124.113281 L 70.53125 138.398438 C 68.839844 137.738281 66.847656 138.085938 65.480469 139.453125 L 42.222656 162.710938 C 40.859375 164.078125 40.511719 166.070312 41.167969 167.761719 L 20.246094 188.679688 C 19.507812 189.417969 19.507812 190.613281 20.246094 191.351562 C 20.613281 191.71875 21.097656 191.902344 21.582031 191.902344 C 22.0625 191.902344 22.546875 191.71875 22.914062 191.351562 L 43.828125 170.4375 C 44.386719 170.65625 44.972656 170.769531 45.5625 170.769531 C 46.769531 170.769531 47.976562 170.308594 48.898438 169.386719 L 72.15625 146.128906 C 73.527344 144.757812 73.875 142.753906 73.207031 141.0625 L 87.476562 126.789062 C 88.03125 127.007812 88.621094 127.121094 89.207031 127.121094 C 90.414062 127.121094 91.625 126.660156 92.542969 125.738281 L 118.878906 99.402344 C 120.25 98.03125 120.597656 96.03125 119.929688 94.335938 L 191.253906 23.011719 C 191.992188 22.273438 191.992188 21.078125 191.253906 20.34375 C 190.519531 19.605469 189.324219 19.605469 188.585938 20.34375 Z M 188.585938 20.34375 " fill-opacity="1" fill-rule="nonzero"/><path fill="#ffffff" d="M 188.585938 39.84375 L 125.75 102.679688 C 124.058594 102.023438 122.066406 102.371094 120.703125 103.734375 L 94.460938 129.976562 C 93.09375 131.339844 92.746094 133.332031 93.40625 135.023438 L 70.53125 157.898438 C 68.839844 157.242188 66.847656 157.589844 65.480469 158.957031 L 61.726562 162.710938 C 60.359375 164.078125 60.011719 166.070312 60.667969 167.761719 L 39.75 188.679688 C 39.011719 189.417969 39.011719 190.613281 39.75 191.351562 C 40.117188 191.71875 40.601562 191.902344 41.082031 191.902344 C 41.566406 191.902344 42.050781 191.71875 42.417969 191.351562 L 63.332031 170.4375 C 63.886719 170.65625 64.476562 170.769531 65.0625 170.769531 C 66.269531 170.769531 67.480469 170.308594 68.402344 169.386719 L 72.15625 165.628906 C 73.527344 164.257812 73.875 162.257812 73.207031 160.5625 L 96.070312 137.699219 C 96.625 137.917969 97.210938 138.03125 97.796875 138.03125 C 99.003906 138.03125 100.214844 137.570312 101.136719 136.648438 L 127.375 110.410156 C 128.746094 109.039062 129.09375 107.039062 128.425781 105.34375 L 191.253906 42.511719 C 191.992188 41.777344 191.992188 40.582031 191.253906 39.84375 C 190.519531 39.105469 189.324219 39.105469 188.585938 39.84375 Z M 188.585938 39.84375 " fill-opacity="1" fill-rule="nonzero"/><path fill="#ffffff" d="M 188.585938 59.363281 L 134.253906 113.6875 C 132.558594 113.027344 130.5625 113.375 129.195312 114.742188 L 103.066406 140.886719 C 101.707031 142.253906 101.359375 144.238281 102.011719 145.925781 L 59.25 188.679688 C 58.511719 189.417969 58.511719 190.613281 59.25 191.351562 C 59.617188 191.71875 60.101562 191.902344 60.585938 191.902344 C 61.066406 191.902344 61.550781 191.71875 61.917969 191.351562 L 104.667969 148.609375 C 105.222656 148.832031 105.816406 148.945312 106.40625 148.945312 C 107.613281 148.945312 108.824219 148.484375 109.746094 147.5625 L 135.871094 121.414062 C 137.238281 120.046875 137.585938 118.050781 136.921875 116.355469 L 191.253906 62.035156 C 191.992188 61.296875 191.992188 60.101562 191.253906 59.363281 C 190.519531 58.625 189.324219 58.625 188.585938 59.363281 Z M 188.585938 59.363281 " fill-opacity="1" fill-rule="nonzero"/><path fill="#ffffff" d="M 188.585938 78.867188 L 142.757812 124.691406 C 141.070312 124.035156 139.074219 124.382812 137.710938 125.75 L 111.660156 151.800781 C 110.292969 153.164062 109.945312 155.15625 110.601562 156.847656 L 78.769531 188.679688 C 78.03125 189.417969 78.03125 190.613281 78.769531 191.351562 C 79.136719 191.71875 79.621094 191.902344 80.105469 191.902344 C 80.585938 191.902344 81.070312 191.71875 81.4375 191.351562 L 113.265625 159.523438 C 113.820312 159.742188 114.40625 159.855469 114.996094 159.855469 C 116.203125 159.855469 117.410156 159.394531 118.332031 158.472656 L 144.386719 132.421875 C 145.757812 131.054688 146.101562 129.050781 145.4375 127.355469 L 191.253906 81.535156 C 191.992188 80.796875 191.992188 79.601562 191.253906 78.867188 C 190.519531 78.128906 189.324219 78.128906 188.585938 78.867188 Z M 188.585938 78.867188 " fill-opacity="1" fill-rule="nonzero"/><path fill="#ffffff" d="M 188.585938 98.367188 L 151.234375 135.714844 C 149.542969 135.058594 147.550781 135.40625 146.1875 136.773438 L 120.25 162.714844 C 118.882812 164.078125 118.535156 166.070312 119.191406 167.761719 L 98.269531 188.683594 C 97.535156 189.417969 97.535156 190.613281 98.269531 191.351562 C 98.640625 191.71875 99.121094 191.90625 99.605469 191.90625 C 100.089844 191.90625 100.570312 191.71875 100.941406 191.351562 L 121.855469 170.4375 C 122.410156 170.65625 122.996094 170.769531 123.585938 170.769531 C 124.792969 170.769531 126 170.308594 126.921875 169.386719 L 152.859375 143.449219 C 154.230469 142.078125 154.578125 140.074219 153.910156 138.378906 L 191.253906 101.039062 C 191.992188 100.300781 191.992188 99.105469 191.253906 98.367188 C 190.519531 97.628906 189.324219 97.628906 188.585938 98.367188 Z M 188.585938 98.367188 " fill-opacity="1" fill-rule="nonzero"/><path fill="#ffffff" d="M 188.585938 117.886719 L 159.75 146.722656 C 158.058594 146.066406 156.066406 146.414062 154.703125 147.78125 L 139.769531 162.710938 C 138.402344 164.078125 138.054688 166.070312 138.714844 167.761719 L 117.792969 188.679688 C 117.054688 189.417969 117.054688 190.613281 117.792969 191.351562 C 118.160156 191.71875 118.644531 191.902344 119.125 191.902344 C 119.609375 191.902344 120.09375 191.71875 120.460938 191.351562 L 141.375 170.4375 C 141.929688 170.65625 142.519531 170.769531 143.105469 170.769531 C 144.3125 170.769531 145.523438 170.308594 146.441406 169.386719 L 161.375 154.453125 C 162.746094 153.082031 163.09375 151.082031 162.425781 149.386719 L 191.253906 120.558594 C 191.992188 119.820312 191.992188 118.625 191.253906 117.886719 C 190.519531 117.148438 189.324219 117.148438 188.585938 117.886719 Z M 188.585938 117.886719 " fill-opacity="1" fill-rule="nonzero"/><path fill="#ffffff" d="M 188.585938 137.390625 L 168.246094 157.730469 C 166.554688 157.070312 164.5625 157.421875 163.199219 158.785156 L 159.269531 162.714844 C 157.90625 164.078125 157.554688 166.070312 158.214844 167.761719 L 137.292969 188.683594 C 136.554688 189.417969 136.554688 190.613281 137.292969 191.351562 C 137.660156 191.71875 138.144531 191.90625 138.628906 191.90625 C 139.109375 191.90625 139.59375 191.71875 139.960938 191.351562 L 160.875 170.4375 C 161.433594 170.65625 162.019531 170.769531 162.605469 170.769531 C 163.816406 170.769531 165.023438 170.308594 165.945312 169.386719 L 169.871094 165.460938 C 171.242188 164.089844 171.589844 162.085938 170.921875 160.390625 L 191.253906 140.058594 C 191.992188 139.320312 191.992188 138.125 191.253906 137.390625 C 190.519531 136.652344 189.324219 136.652344 188.585938 137.390625 Z M 188.585938 137.390625 " fill-opacity="1" fill-rule="nonzero"/><path fill="#ffffff" d="M 188.585938 156.890625 L 156.792969 188.679688 C 156.058594 189.417969 156.058594 190.613281 156.792969 191.351562 C 157.164062 191.71875 157.648438 191.902344 158.128906 191.902344 C 158.613281 191.902344 159.09375 191.71875 159.464844 191.351562 L 191.253906 159.558594 C 191.992188 158.824219 191.992188 157.628906 191.253906 156.890625 C 190.519531 156.152344 189.324219 156.152344 188.585938 156.890625 Z M 188.585938 156.890625 " fill-opacity="1" fill-rule="nonzero"/><path fill="#ffffff" d="M 188.585938 176.410156 L 176.316406 188.679688 C 175.578125 189.417969 175.578125 190.613281 176.316406 191.351562 C 176.683594 191.71875 177.167969 191.902344 177.648438 191.902344 C 178.132812 191.902344 178.617188 191.71875 178.984375 191.351562 L 191.253906 179.078125 C 191.992188 178.34375 191.992188 177.148438 191.253906 176.410156 C 190.519531 175.671875 189.324219 175.671875 188.585938 176.410156 Z M 188.585938 176.410156 " fill-opacity="1" fill-rule="nonzero"/><path fill="#ffffff" d="M 29.644531 167.164062 C 30.851562 167.164062 32.0625 166.703125 32.984375 165.78125 L 169.304688 29.476562 C 170.675781 28.109375 171.023438 26.105469 170.355469 24.410156 L 191.253906 3.511719 C 191.992188 2.773438 191.992188 1.578125 191.253906 0.839844 C 190.519531 0.101562 189.324219 0.101562 188.585938 0.839844 L 167.675781 21.746094 C 165.988281 21.089844 163.996094 21.4375 162.632812 22.804688 L 26.308594 159.105469 C 24.941406 160.472656 24.59375 162.464844 25.253906 164.15625 L 0.746094 188.664062 C 0.390625 189.015625 0.191406 189.496094 0.191406 189.996094 L 0.191406 190.015625 C 0.191406 191.058594 1.035156 191.894531 2.078125 191.894531 C 2.640625 191.894531 3.140625 191.648438 3.488281 191.261719 L 27.917969 166.832031 C 28.472656 167.050781 29.058594 167.164062 29.644531 167.164062 Z M 29.644531 167.164062 " fill-opacity="1" fill-rule="nonzero"/></svg>